<svg width="3195" height="1000" viewBox="0 0 3195 1000" fill="none" xmlns="http://www.w3.org/2000/svg">
<rect width="3195" height="1000" fill="black"/>
<rect x="2901" y="200" width="100" height="100" fill="#D9D9D9"/>
<rect x="2901" y="400" width="100" height="100" fill="#D9D9D9"/>
<rect x="2901" y="600" width="100" height="100" fill="#D9D9D9"/>
<rect x="2901" y="500" width="100" height="100" fill="#D9D9D9"/>
<path d="M2901 700H3001V800H2901V700Z" fill="#D9D9D9"/>
<rect x="2501" y="700" width="100" height="100" fill="#D9D9D9"/>
<rect x="2601" y="700" width="100" height="100" fill="#D9D9D9"/>
<rect x="2401" y="400" width="100" height="100" fill="#D9D9D9"/>
<rect x="2401" y="600" width="100" height="100" fill="#D9D9D9"/>
<rect x="2401" y="500" width="100" height="100" fill="#D9D9D9"/>
<rect x="2701" y="500" width="100" height="100" fill="#D9D9D9"/>
<rect x="2701" y="400" width="100" height="100" fill="#D9D9D9"/>
<path d="M2401 700H2501V800H2401V700Z" fill="#D9D9D9"/>
<rect x="2701" y="600" width="100" height="100" fill="#D9D9D9"/>
<rect x="2101" y="200" width="100" height="100" fill="#D9D9D9"/>
<rect x="1801" y="400" width="100" height="100" fill="#D9D9D9"/>
<rect x="2201" y="500" width="100" height="100" fill="#D9D9D9"/>
<rect x="2101" y="400" width="100" height="100" fill="#D9D9D9"/>
<rect x="2101" y="700" width="100" height="100" fill="#D9D9D9"/>
<rect x="2001" y="700" width="100" height="100" fill="#D9D9D9"/>
<rect x="2001" y="200" width="100" height="100" fill="#D9D9D9"/>
<rect x="2201" y="600" width="100" height="100" fill="#D9D9D9"/>
<rect x="1801" y="500" width="100" height="100" fill="#D9D9D9"/>
<rect x="1801" y="600" width="100" height="100" fill="#D9D9D9"/>
<rect x="1801" y="600" width="100" height="100" fill="#D9D9D9"/>
<rect x="1801" y="300" width="100" height="100" fill="#D9D9D9"/>
<rect x="1901" y="200" width="100" height="100" fill="#D9D9D9"/>
<rect x="1901" y="700" width="100" height="100" fill="#D9D9D9"/>
<rect x="2001" y="400" width="100" height="100" fill="#D9D9D9"/>
<rect x="1401" y="400" width="100" height="100" fill="#D9D9D9"/>
<rect x="1501" y="400" width="100" height="100" fill="#D9D9D9"/>
<rect x="1301" y="400" width="100" height="100" fill="#D9D9D9"/>
<rect x="1301" y="600" width="100" height="100" fill="#D9D9D9"/>
<rect x="1301" y="500" width="100" height="100" fill="#D9D9D9"/>
<rect x="1601" y="500" width="100" height="100" fill="#D9D9D9"/>
<path d="M1301 700H1401V800H1301V700Z" fill="#D9D9D9"/>
<rect x="1601" y="600" width="100" height="100" fill="#D9D9D9"/>
<rect x="1601" y="700" width="100" height="100" fill="#D9D9D9"/>
<rect x="901" y="300" width="100" height="100" fill="#D9D9D9"/>
<rect x="1001" y="300" width="100" height="100" fill="#D9D9D9"/>
<rect x="1101" y="400" width="100" height="100" fill="#D9D9D9"/>
<rect x="801" y="400" width="100" height="100" fill="#D9D9D9"/>
<rect x="901" y="500" width="100" height="100" fill="#D9D9D9"/>
<rect x="801" y="600" width="100" height="100" fill="#D9D9D9"/>
<rect x="801" y="500" width="100" height="100" fill="#D9D9D9"/>
<rect x="1001" y="500" width="100" height="100" fill="#D9D9D9"/>
<path d="M901 700H1001V800H901V700Z" fill="#D9D9D9"/>
<rect x="1001" y="700" width="100" height="100" fill="#D9D9D9"/>
<rect x="1101" y="700" width="100" height="100" fill="#D9D9D9"/>
<rect x="501" y="300" width="100" height="100" fill="#D9D9D9"/>
<rect x="401" y="400" width="100" height="100" fill="#D9D9D9"/>
<rect x="501" y="500" width="100" height="100" fill="#D9D9D9"/>
<rect x="601" y="200" width="100" height="100" fill="#D9D9D9"/>
<rect x="601" y="600" width="100" height="100" fill="#D9D9D9"/>
<rect x="301" y="500" width="100" height="100" fill="#D9D9D9"/>
<rect x="201" y="600" width="100" height="100" fill="#D9D9D9"/>
<rect x="201" y="600" width="100" height="100" fill="#D9D9D9"/>
<rect x="301" y="300" width="100" height="100" fill="#D9D9D9"/>
<rect x="201" y="200" width="100" height="100" fill="#D9D9D9"/>
<rect x="601" y="700" width="100" height="100" fill="#D9D9D9"/>
<rect x="201" y="700" width="100" height="100" fill="#D9D9D9"/>
</svg>
